<svg width="140" height="32" viewBox="0 0 140 32" fill="none" xmlns="http://www.w3.org/2000/svg">
  <!-- Brand mark (smaller version) -->
  <circle cx="16" cy="16" r="12" fill="#0A1B2F"/>
  <path d="M10 10C10 8.89543 10.8954 8 12 8H20C21.1046 8 22 8.89543 22 10V22C22 23.1046 21.1046 24 20 24H12C10.8954 24 10 23.1046 10 22V10Z" stroke="white" stroke-width="1.5" stroke-linecap="round" stroke-linejoin="round" fill="none"/>
  <path d="M13 13C13 11.8954 13.8954 11 15 11H17C18.1046 11 19 11.8954 19 13V17C19 18.1046 18.1046 19 17 19H15C13.8954 19 13 18.1046 13 17V13Z" stroke="white" stroke-width="1" stroke-linecap="round" stroke-linejoin="round" fill="none"/>
  
  <!-- Text "Luhreetech" -->
  <text x="36" y="22" font-family="Inter, system-ui, sans-serif" font-size="18" font-weight="600" fill="#0A1B2F" letter-spacing="-0.01em">Luhreetech</text>
</svg>
