<svg width="28" height="28" viewBox="0 0 28 28" fill="none" xmlns="http://www.w3.org/2000/svg">
  <!-- Navy coin background -->
  <circle cx="14" cy="14" r="14" fill="#0A1B2F"/>
  
  <!-- White loop L stroke -->
  <path d="M8 8C8 6.89543 8.89543 6 10 6H18C19.1046 6 20 6.89543 20 8V20C20 21.1046 19.1046 22 18 22H10C8.89543 22 8 21.1046 8 20V8Z" stroke="white" stroke-width="2" stroke-linecap="round" stroke-linejoin="round" fill="none"/>
  
  <!-- Inner loop detail -->
  <path d="M12 12C12 10.8954 12.8954 10 14 10H16C17.1046 10 18 10.8954 18 12V16C18 17.1046 17.1046 18 16 18H14C12.8954 18 12 17.1046 12 16V12Z" stroke="white" stroke-width="1.5" stroke-linecap="round" stroke-linejoin="round" fill="none"/>
</svg>
