<svg width="32" height="32" viewBox="0 0 32 32" fill="none" xmlns="http://www.w3.org/2000/svg">
  <!-- Navy coin background -->
  <circle cx="16" cy="16" r="16" fill="#0A1B2F"/>
  
  <!-- White loop L stroke -->
  <path d="M9 9C9 7.89543 9.89543 7 11 7H21C22.1046 7 23 7.89543 23 9V23C23 24.1046 22.1046 25 21 25H11C9.89543 25 9 24.1046 9 23V9Z" stroke="white" stroke-width="2.5" stroke-linecap="round" stroke-linejoin="round" fill="none"/>
  
  <!-- Inner loop detail -->
  <path d="M13 13C13 11.8954 13.8954 11 15 11H17C18.1046 11 19 11.8954 19 13V17C19 18.1046 18.1046 19 17 19H15C13.8954 19 13 18.1046 13 17V13Z" stroke="white" stroke-width="2" stroke-linecap="round" stroke-linejoin="round" fill="none"/>
</svg>
